<?xml version="1.0" encoding="utf-8"?>
<!-- Generator: Adobe Illustrator 18.1.1, SVG Export Plug-In . SVG Version: 6.00 Build 0)  -->
<svg version="1.1" id="Capa_1" xmlns="http://www.w3.org/2000/svg" xmlns:xlink="http://www.w3.org/1999/xlink" x="0px" y="0px"
	 viewBox="0 0 302.963 165.926" enable-background="new 0 0 302.963 165.926" xml:space="preserve">
<polyline fill-rule="evenodd" clip-rule="evenodd" fill="#E30613" points="49.346,115.391 70.407,114.891 109.937,117.305 
	205.661,116.48 243.056,121.076 247.404,111.079 241.208,86.111 69.962,86.111 "/>
<path fill="#E30613" d="M122.013,98.544c0,0-1.218-27.752-78.521-21.483l5.475,25.958c0,0-6.694,8.952-1.825,12.533l23.267-0.66
	c-0.285-1.362-0.438-2.775-0.438-4.225c0-11.341,9.194-20.534,20.536-20.534c11.341,0,20.535,9.193,20.535,20.534
	c0,2.326-0.392,4.556-1.104,6.639l95.724-0.825c-0.545-1.844-0.842-3.792-0.842-5.814c0-11.341,9.193-20.534,20.537-20.534
	c11.34,0,20.533,9.193,20.533,20.534c0,3.8-1.035,7.356-2.834,10.409l5.566,0.742l-1.218-10.739l-0.608-8.954l6.088-18.8
	c0,0,9.13-4.476,9.13-14.323C262.014,69.002,173.143,65.423,122.013,98.544z"/>
<ellipse fill="#F9B233" stroke="#055A81" cx="44.411" cy="83.574" rx="3.461" ry="1.973"/>
<ellipse fill="#F9B233" stroke="#055A81" cx="45.424" cy="86.927" rx="3.461" ry="1.972"/>
<ellipse fill="#F9B233" stroke="#055A81" cx="46.437" cy="90.095" rx="3.462" ry="1.97"/>
<path fill="#E30613" d="M111.929,115.391h88.77c0,0-7.518-7.369,0.358-11.054c0,0-9.667-1.055-6.803,6.843L111.929,115.391z"/>
<path fill="#E30613" d="M195.056,73.476l-6.694-24.166l8.781,0.769c0,0-61.738-41.054-122.002,29.665l28.609,7.162
	c0,0-7.913-39.388,79.133-37.596L195.056,73.476z"/>
<path fill="#E30613" d="M253.906,72.186c0,0-71.399-4.363-131.129,28.503c0,0,60.521-28.503,125.392-26.761L253.906,72.186z"/>
<path fill="#E30613" d="M120.999,100.107c0,0-0.992-18.907-45.096-21.812C75.903,78.295,111.505,82.075,120.999,100.107z"/>
<path fill="#E30613" d="M188.622,110.29c0,0-0.742-0.896,0.246-5.369l-79.941,5.817L188.622,110.29z"/>
<path fill="#FFFFFF" stroke="#055A81" stroke-width="0.9747" d="M93.401,70.347c0,3.212,1.773,5.815,3.956,5.815
	c2.186,0,3.961-2.603,3.961-5.815c0-3.216-1.775-5.822-3.961-5.822C95.175,64.525,93.401,67.132,93.401,70.347z"/>
<polyline fill="#E30613" points="187.414,74.951 180.345,69.008 182.163,62.769 174.284,76.138 179.333,71.385 186.001,75.542 "/>
<path fill="#E30613" d="M148.544,79.609l-1.732-13.572c1.214-2.081,4.848-0.594,4.848-0.594l3.584,13.47l15.203-1.587h0.402
	c-25.047,4.454-48.48,19.607-48.48,19.607c-2.22-10.994-11.716-13.369-11.716-13.369L148.544,79.609z"/>
<path fill="#E30613" d="M72.677,77.326c0,0-6.263-18.718-13.737-23.471c0,0,9.495,10.991,12.122,23.471H72.677z"/>
<path fill="#E30613" d="M58.131,53.855c0,0.986,0.542,1.78,1.213,1.78c0.668,0,1.211-0.794,1.211-1.78
	c0-0.983-0.543-1.781-1.211-1.781C58.673,52.074,58.131,52.872,58.131,53.855z"/>
<path fill="#E30613" d="M250.874,83.194c0,0-10.822-2.395-45.259,2.396c0,0,41.768-2.222,41.188,0.345
	c-0.584,2.566-16.389,2.311-16.389,2.311s16.038,0.597,14.758,3.336c-1.278,2.737-6.708,2.102-6.708,2.102l7.522,3.886
	c0,0,3.828-8.935,4.888-14.03"/>
<path fill="#E30613" d="M47.673,80.45c0,0,25.616-5.566,51.814,9.415c0,0-32.312-1.926-48.903,7.491c0,0,8.587-9.415,31.437-10.272
	c0,0-15.718-4.067-32.164,1.284c0,0,1.892-4.496,25.033-4.923C74.89,83.445,58.734,78.951,47.673,80.45z"/>
<path fill="#E30613" d="M190.403,47.807c0,0-69.152-5.262-82.264,21.041C108.14,68.848,113.245,39.543,190.403,47.807z"/>
<path fill="#F9B233" stroke="#055A81" d="M258.525,75.773c2.42-3.577,3.166-5.715,1.544-5.751c-1.886-0.04-5.705,2.905-8.123,6.48
	c-2.42,3.577-2.211,6.88-0.637,6.479C252.871,82.574,256.11,79.351,258.525,75.773z"/>
<g>
	<g>
		<path fill-rule="evenodd" clip-rule="evenodd" fill="#1E1E1C" d="M208.35,109.839c0-10.648,8.577-19.28,19.154-19.28
			c10.579,0,19.157,8.632,19.157,19.28c0,10.651-8.578,19.284-19.157,19.284C216.927,129.123,208.35,120.49,208.35,109.839z"/>
		<path fill-rule="evenodd" clip-rule="evenodd" fill="#CECEB8" d="M214.267,109.839c0-7.36,5.929-13.326,13.237-13.326
			c7.315,0,13.239,5.966,13.239,13.326c0,7.361-5.924,13.327-13.239,13.327C220.195,123.166,214.267,117.2,214.267,109.839z"/>
		<g>
			<path fill-rule="evenodd" clip-rule="evenodd" fill="#BE1823" d="M228.464,100.094c-0.527-3.868-1.39-3.868-1.917,0
				c-0.527,3.868-4.066,6.469-7.864,5.781c-3.799-0.688-4.064,0.141-0.592,1.842c3.473,1.701,4.824,5.91,3.004,9.354
				c-1.82,3.442-1.123,3.955,1.551,1.14c2.673-2.815,7.047-2.815,9.721,0c2.673,2.816,3.369,2.303,1.548-1.14
				c-1.821-3.443-0.47-7.652,3.004-9.354s3.208-2.53-0.591-1.842C232.528,106.562,228.99,103.962,228.464,100.094z"/>
		</g>
		<path fill-rule="evenodd" clip-rule="evenodd" fill="#B2B390" d="M223,109.839c0-2.502,2.015-4.535,4.504-4.535
			c2.489,0,4.505,2.033,4.505,4.535c0,2.503-2.016,4.534-4.505,4.534C225.015,114.373,223,112.342,223,109.839z"/>
	</g>
</g>
<g>
	<g>
		<path fill-rule="evenodd" clip-rule="evenodd" fill="#1E1E1C" d="M74.245,110.736c0-10.648,8.577-19.28,19.154-19.28
			c10.579,0,19.156,8.632,19.156,19.28c0,10.651-8.577,19.284-19.156,19.284C82.822,130.02,74.245,121.388,74.245,110.736z"/>
		<path fill-rule="evenodd" clip-rule="evenodd" fill="#CECEB8" d="M80.161,110.736c0-7.359,5.929-13.326,13.238-13.326
			c7.315,0,13.239,5.967,13.239,13.326c0,7.361-5.924,13.327-13.239,13.327C86.09,124.063,80.161,118.097,80.161,110.736z"/>
		<g>
			<path fill-rule="evenodd" clip-rule="evenodd" fill="#BE1823" d="M94.358,100.991c-0.526-3.868-1.389-3.868-1.916,0
				c-0.527,3.868-4.066,6.469-7.865,5.78c-3.799-0.688-4.064,0.142-0.592,1.844c3.473,1.701,4.825,5.91,3.004,9.353
				c-1.82,3.442-1.122,3.955,1.551,1.14c2.674-2.815,7.048-2.815,9.721,0c2.673,2.815,3.369,2.303,1.549-1.14
				c-1.821-3.442-0.47-7.651,3.004-9.353c3.473-1.702,3.207-2.531-0.592-1.844C98.424,107.46,94.886,104.859,94.358,100.991z"/>
		</g>
		<ellipse fill-rule="evenodd" clip-rule="evenodd" fill="#B2B390" cx="93.399" cy="110.736" rx="4.504" ry="4.534"/>
	</g>
</g>
</svg>
