<?xml version="1.0" encoding="utf-8"?>
<!-- Generator: Adobe Illustrator 18.1.1, SVG Export Plug-In . SVG Version: 6.00 Build 0)  -->
<svg version="1.1" id="Capa_1" xmlns="http://www.w3.org/2000/svg" xmlns:xlink="http://www.w3.org/1999/xlink" x="0px" y="0px"
	 viewBox="0 0 50.37 50.37" enable-background="new 0 0 50.37 50.37" xml:space="preserve">
<g>
	<g>
		<path fill-rule="evenodd" clip-rule="evenodd" fill="#1E1E1C" d="M5.97,25.183c0-10.648,8.577-19.28,19.154-19.28
			c10.579,0,19.157,8.632,19.157,19.28c0,10.651-8.578,19.284-19.157,19.284C14.548,44.467,5.97,35.835,5.97,25.183z"/>
		<path fill-rule="evenodd" clip-rule="evenodd" fill="#CECEB8" d="M11.887,25.183c0-7.36,5.929-13.326,13.237-13.326
			c7.315,0,13.239,5.966,13.239,13.326c0,7.361-5.924,13.327-13.239,13.327C17.816,38.51,11.887,32.545,11.887,25.183z"/>
		<g>
			<path fill-rule="evenodd" clip-rule="evenodd" fill="#BE1823" d="M26.085,15.438c-0.527-3.868-1.39-3.868-1.917,0
				c-0.527,3.868-4.066,6.469-7.864,5.781c-3.799-0.689-4.064,0.141-0.592,1.842c3.473,1.701,4.824,5.91,3.004,9.354
				c-1.82,3.442-1.123,3.955,1.551,1.14c2.673-2.815,7.047-2.815,9.721,0c2.673,2.815,3.369,2.303,1.548-1.14
				c-1.821-3.443-0.47-7.652,3.004-9.354c3.474-1.701,3.208-2.53-0.591-1.842C30.149,21.907,26.611,19.306,26.085,15.438z"/>
		</g>
		<path fill-rule="evenodd" clip-rule="evenodd" fill="#B2B390" d="M20.621,25.183c0-2.502,2.015-4.535,4.504-4.535
			c2.489,0,4.505,2.033,4.505,4.535c0,2.503-2.016,4.534-4.505,4.534C22.635,29.717,20.621,27.686,20.621,25.183z"/>
	</g>
</g>
</svg>
